<?xml version="1.0" encoding="utf-8"?>
<!-- Generator: Adobe Illustrator 16.0.0, SVG Export Plug-In . SVG Version: 6.00 Build 0)  -->
<!DOCTYPE svg PUBLIC "-//W3C//DTD SVG 1.1//EN" "http://www.w3.org/Graphics/SVG/1.1/DTD/svg11.dtd">
<svg version="1.1" id="Layer_1" xmlns="http://www.w3.org/2000/svg" xmlns:xlink="http://www.w3.org/1999/xlink" x="0px" y="0px"
  viewBox="0 0 38.456 38.439" enable-background="new 0 0 38.456 38.439" xml:space="preserve">
<g>
	<path display="none" d="M17.819,38.618c0-6.933,0-13.866,0-20.799c6.933,0,13.867,0,20.799,0
		c0,6.933,0,13.867,0,20.799C31.686,38.618,24.752,38.618,17.819,38.618z M38.439,28.183C38.421,22.545,33.806,17.973,28.162,18
		C22.558,18.027,18.002,22.608,18,28.216c-0.001,5.64,4.597,10.232,10.236,10.224C33.874,38.431,38.457,33.822,38.439,28.183z"/>
	<path fill-rule="evenodd" clip-rule="evenodd" d="M38.439,19.15c0.033,10.606-8.586,19.273-19.188,19.29
		C8.646,38.456-0.003,29.818,0,19.212C0.004,8.666,8.572,0.052,19.111,0C29.725-0.05,38.404,8.548,38.439,19.15z M17.142,23.609
		c-1.243-1.333-2.39-2.551-3.523-3.784c-0.862-0.937-1.614-0.602-2.303,0.199c-0.676,0.786-2.074,1.453-0.86,2.738
		c1.921,2.031,3.92,3.993,5.942,5.923c0.95,0.907,1.983,0.793,2.733-0.302c3.388-4.949,6.757-9.913,10.088-14.902
		c0.231-0.344,0.302-1.034,0.112-1.382c-1.047-1.923-3.021-1.997-4.229-0.218C22.503,15.705,19.91,19.53,17.142,23.609z"/>
	<path display="none" fill-rule="evenodd" clip-rule="evenodd" fill="none" d="M27.115,30.554c1.472-2.169,2.851-4.203,4.232-6.236
		c0.643-0.946,1.692-0.907,2.249,0.116c0.101,0.185,0.063,0.552-0.06,0.735c-1.771,2.653-3.562,5.292-5.364,7.924
		c-0.398,0.582-0.948,0.643-1.453,0.16c-1.075-1.026-2.138-2.069-3.16-3.149c-0.646-0.684,0.098-1.038,0.458-1.456
		c0.366-0.426,0.766-0.604,1.225-0.105C25.844,29.197,26.454,29.845,27.115,30.554z"/>
</g>
</svg>
