<?xml version="1.0" encoding="utf-8"?>
<!-- Generator: Adobe Illustrator 16.0.0, SVG Export Plug-In . SVG Version: 6.00 Build 0)  -->
<!DOCTYPE svg PUBLIC "-//W3C//DTD SVG 1.1//EN" "http://www.w3.org/Graphics/SVG/1.1/DTD/svg11.dtd">
<svg version="1.1" id="Layer_1" xmlns="http://www.w3.org/2000/svg" xmlns:xlink="http://www.w3.org/1999/xlink" x="0px" y="0px"
 viewBox="0 79.956 640 320.088" enable-background="new 0 79.956 640 320.088"
	 xml:space="preserve">
<g>
	<path display="none" fill="#666666" d="M-359.945,824.433c0-453.431,0-906.854,0-1360.284c453.43,0,906.861,0,1360.284,0
		c0,453.43,0,906.854,0,1360.284C546.916,824.433,93.485,824.433-359.945,824.433z M640,79.956c-211.619,0-428.034,0-640,0
		C107.551,187.5,216.428,296.377,320.102,400.044C425.014,295.064,533.286,186.725,640,79.956z"/>
	<path fill="#666666" d="M640,79.956C533.286,186.725,425.014,295.064,320.102,400.044C216.428,296.377,107.551,187.5,0,79.956
		C211.966,79.956,428.381,79.956,640,79.956z"/>
</g>
</svg>
