<?xml version="1.0" encoding="utf-8"?>
<!-- Generator: Adobe Illustrator 16.0.0, SVG Export Plug-In . SVG Version: 6.00 Build 0)  -->
<!DOCTYPE svg PUBLIC "-//W3C//DTD SVG 1.1//EN" "http://www.w3.org/Graphics/SVG/1.1/DTD/svg11.dtd">
<svg version="1.1" id="Layer_1" xmlns="http://www.w3.org/2000/svg" xmlns:xlink="http://www.w3.org/1999/xlink" x="0px" y="0px"
	 viewBox="0 0 405.72 477.267" enable-background="new 0 0 405.72 477.267"
	 xml:space="preserve">
<g>
	<path fill-rule="evenodd" clip-rule="evenodd" d="M61.243,28.771c0,5.226,0,9.496,0,14.475c-7.913,0-15.522,0.124-23.127-0.025
		c-15.667-0.309-23.902,2.156-23.82,23.549c0.481,125.479,0.245,250.958,0.251,376.438c0,12.234,7.154,19.48,19.642,19.488
		c85.319,0.049,170.639,0.034,255.958,0.041c3.832,0.001,7.667,0.076,11.497-0.004c7.949-0.167,13.135-4.44,14.7-12.257
		c0.486-2.431,0.655-4.96,0.659-7.445c0.044-30.661-0.059-61.323,0.146-91.983c0.025-3.83,1.053-7.881,2.563-11.425
		c3.24-7.6,7.099-14.935,11.853-22.27c0,1.867,0,3.734,0,5.602c0,40.16,0.077,80.321-0.099,120.48
		c-0.021,4.906-0.688,10.051-2.28,14.663c-4.235,12.263-14.019,19.067-26.953,19.108c-35.661,0.112-71.321,0.056-106.982,0.061
		c-51.821,0.006-103.643,0.029-155.463-0.028c-5.144-0.006-10.454,0.2-15.4-0.939c-14.587-3.359-24.305-16.371-24.329-31.944
		C-0.009,401.362,0,358.369,0.001,315.376c0.003-84.819,0.025-169.639,0.03-254.458C0.032,41.231,11.784,29.133,31.487,28.8
		C41.269,28.635,51.056,28.771,61.243,28.771z"/>
	<path fill-rule="evenodd" clip-rule="evenodd" d="M238.776,336.836c6.788-14.181,13.3-27.819,19.846-41.441
		c3.816-7.942,7.739-15.834,11.501-23.801c1.208-2.559,2.512-4.056,5.771-4.479c7.936-1.033,12.816-6.229,16.191-13.297
		c15.404-32.262,30.936-64.462,46.426-96.683c0.852-1.772,1.74-3.526,2.877-5.827c10.168,4.855,20.057,9.48,29.851,14.299
		c3.956,1.947,9.666,3.528,10.953,6.732c1.113,2.772-2.804,7.651-4.663,11.52c-27.884,57.999-55.795,115.986-83.707,173.972
		c-0.638,1.324-1.373,2.602-2.31,4.365C273.981,353.766,256.667,345.438,238.776,336.836z"/>
	<path fill-rule="evenodd" clip-rule="evenodd" d="M390.208,159.315c-8.829-4.223-16.751-8-24.662-11.8
		c-7.493-3.601-14.96-7.258-22.467-10.828c-6.189-2.944-8.365-2.19-11.368,4.015c-8.258,17.063-16.463,34.153-24.691,51.232
		c-8.661,17.978-17.324,35.953-25.985,53.931c-0.434,0.899-0.835,1.815-1.3,2.698c-1.724,3.272-3.781,6.22-8.12,4.528
		c-3.348-1.304-4.042-5.01-1.884-9.5c9.22-19.185,18.503-38.339,27.743-57.515c9.674-20.076,19.311-40.171,28.991-60.244
		c3.425-7.1,4.918-7.746,11.888-4.651c2.535,1.125,3.916,0.76,5.057-1.762c2.329-5.153,4.713-10.288,7.278-15.326
		c3.404-6.685,9.519-9.014,16.35-5.892c10.737,4.906,21.357,10.073,31.942,15.301c4.897,2.418,8.052,7.745,6.207,12.329
		C400.689,137.005,395.396,147.856,390.208,159.315z"/>
	<path fill-rule="evenodd" clip-rule="evenodd" d="M266.534,158.947c-67.367,0-134.04,0-201.467,0c0-3.979-0.032-7.741,0.009-11.502
		c0.038-3.529,2.796-2.677,4.742-2.688c13.652-0.071,27.305-0.044,40.957-0.041c49.449,0.011,98.897,0.008,148.345,0.054
		c8.021,0.008,7.437-1.106,7.414,7.527C266.529,154.285,266.534,156.272,266.534,158.947z"/>
	<path fill-rule="evenodd" clip-rule="evenodd" d="M266.258,195.115c0,4.681,0,8.951,0,13.695c-66.898,0-133.697,0-200.859,0
		c0-4.519,0-8.906,0-13.695C132.273,195.115,198.952,195.115,266.258,195.115z"/>
	<path fill-rule="evenodd" clip-rule="evenodd" d="M65.608,258.851c-2.242-14.126-2.242-14.104,11.107-14.102
		c56.464,0.009,112.929,0.003,169.393,0.003c1.948,0,3.896,0,5.531,0c1.081,5.023,2.016,9.365,3.035,14.099
		C191.827,258.851,128.862,258.851,65.608,258.851z"/>
	<path fill-rule="evenodd" clip-rule="evenodd" d="M286.598,374.576c-8.595,7.862-16.294,14.936-24.027,21.972
		c-8.501,7.734-16.962,15.517-25.614,23.077c-1.597,1.396-4.025,1.839-6.07,2.722c-0.783-2.201-2.346-4.444-2.229-6.597
		c1.166-21.416,2.606-42.818,3.995-64.223c0.04-0.605,0.376-1.192,0.809-2.493C251.03,357.479,268.308,365.784,286.598,374.576z"/>
	<path fill-rule="evenodd" clip-rule="evenodd" d="M331.407,102.689c-5.14,2.287-9.476,4.217-14.395,6.405
		c0-4.412,0.002-8.673,0-12.934c-0.004-12.166,0.049-24.332-0.031-36.498c-0.08-12.162-4.431-16.36-16.751-16.417
		c-8.83-0.04-17.66-0.086-26.49-0.148c-0.303-0.002-0.604-0.218-1.304-0.487c0-4.239,0-8.629,0-13.278
		c0.801-0.185,1.574-0.515,2.349-0.517c10.165-0.025,20.341-0.286,30.494,0.072c14.637,0.517,25.585,11.13,26.019,25.768
		C331.775,70.78,331.407,86.931,331.407,102.689z"/>
	<path fill-rule="evenodd" clip-rule="evenodd" d="M256.532,31.266c0,6.825-0.149,13.656,0.104,20.473
		c0.064,1.729,1.012,3.807,2.238,5.048c6.171,6.242,6.638,15.34,0.834,21.467c-5.7,6.02-14.969,6.152-21.045,0.304
		c-5.877-5.657-6.078-14.94,0.084-20.978c2.551-2.498,3.348-4.957,3.306-8.303c-0.14-11.318-0.069-22.64-0.072-33.96
		c-0.001-1.664-0.058-3.336,0.066-4.992c0.348-4.628,2.895-7.108,7.259-7.188c4.338-0.078,7.026,2.405,7.145,7.154
		c0.172,6.988,0.044,13.982,0.044,20.975C256.507,31.266,256.52,31.266,256.532,31.266z"/>
	<path fill-rule="evenodd" clip-rule="evenodd" d="M91.557,31.527c0,4.662,0.02,9.324-0.005,13.985
		c-0.027,5.068-0.345,9.624,4.319,13.886c5.272,4.816,3.544,14.754-2.05,19.747c-5.554,4.957-14,4.918-19.617-0.091
		c-5.778-5.151-7.258-14.153-1.707-19.63c4.66-4.598,4.564-9.46,4.549-14.888c-0.031-10.989-0.055-21.979,0.019-32.967
		c0.039-5.71,2.64-8.519,7.5-8.436c4.628,0.08,6.872,2.705,6.939,8.413c0.079,6.659,0.019,13.319,0.019,19.979
		C91.533,31.527,91.544,31.527,91.557,31.527z"/>
	<path fill-rule="evenodd" clip-rule="evenodd" d="M173.532,31.575c0,4.662,0.035,9.324-0.009,13.986
		c-0.048,5.089-0.208,9.606,4.362,13.879c5.272,4.928,3.535,14.714-2.102,19.734c-5.684,5.063-14.385,4.857-19.99-0.475
		c-5.549-5.278-6.597-14.266-1.057-19.753c4.015-3.977,4.352-8.091,4.306-12.962c-0.108-11.654-0.126-23.312,0.017-34.965
		c0.076-6.153,5.479-10,10.342-7.109c1.988,1.183,3.744,4.323,3.92,6.698c0.516,6.955,0.184,13.973,0.184,20.966
		C173.515,31.575,173.523,31.575,173.532,31.575z"/>
	<path fill-rule="evenodd" clip-rule="evenodd" d="M226.241,29.144c0,4.582,0,8.842,0,13.731c-1.561,0.122-3.135,0.346-4.709,0.353
		c-9.461,0.043-18.924-0.036-28.383,0.088c-2.871,0.038-4.339-0.719-4.148-3.891c0.197-3.275,0.044-6.572,0.044-10.281
		C201.552,29.144,213.573,29.144,226.241,29.144z"/>
	<path fill-rule="evenodd" clip-rule="evenodd" d="M107.076,28.809c11.791,0,22.874-0.051,33.955,0.104
		c0.834,0.012,2.301,1.447,2.36,2.299c0.26,3.758,0.112,7.543,0.112,11.98c-11.779,0-23.004,0.051-34.227-0.114
		c-0.746-0.011-2.036-1.626-2.1-2.562C106.929,36.903,107.076,33.263,107.076,28.809z"/>
</g>
</svg>
