<?xml version="1.0" encoding="utf-8"?>
<!-- Generator: Adobe Illustrator 16.0.0, SVG Export Plug-In . SVG Version: 6.00 Build 0)  -->
<!DOCTYPE svg PUBLIC "-//W3C//DTD SVG 1.1//EN" "http://www.w3.org/Graphics/SVG/1.1/DTD/svg11.dtd">
<svg version="1.1" id="Layer_1" xmlns="http://www.w3.org/2000/svg" xmlns:xlink="http://www.w3.org/1999/xlink" x="0px" y="0px"
	 viewBox="11.674 11.883 38.222 38.902" enable-background="new 11.674 11.883 38.222 38.902"
	 xml:space="preserve">
<g>
	<path display="none" d="M-4.991,55.777c0-19.955,0-39.912,0-59.88c19.945,0,39.896,0,59.867,0c0,19.951,0,39.916,0,59.88
		C34.932,55.777,14.973,55.777-4.991,55.777z M44.921,30.851c0,0.294,0,0.523,0,0.756c0,3,0,6.002,0,9.004
		c0,1.359-0.404,2.571-1.339,3.576c-1.074,1.156-2.43,1.622-3.987,1.621C29.85,45.8,20.104,45.8,10.359,45.804
		c-3.257,0.002-5.382-2.104-5.385-5.369c-0.001-2.963,0-5.926,0-8.887c0-0.227,0-0.45,0-0.684c-1.696,0-3.306,0-4.974,0
		c0,0.245,0,0.454,0,0.663c0,2.865-0.006,5.729,0.002,8.595c0.002,0.683-0.014,1.373,0.09,2.043c0.8,5.162,4.881,8.609,10.178,8.611
		c9.375,0.004,18.75,0.003,28.125-0.002c0.934,0,1.883,0.051,2.8-0.086c5.199-0.77,8.68-4.831,8.697-10.096
		c0.009-3.04,0.002-6.08,0-9.121c0-0.204-0.018-0.409-0.026-0.622C48.199,30.851,46.605,30.851,44.921,30.851z M41.513,16.605
		C35.988,11.079,30.43,5.517,24.916,0C19.412,5.507,13.862,11.059,8.382,16.539c1.121,1.136,2.274,2.306,3.573,3.621
		c3.496-3.494,7.011-7.009,10.527-10.523c0,8.67,0,17.392,0,26.116c1.681,0,3.303,0,4.983,0c0-8.768,0-17.484,0-26.382
		c3.638,3.648,7.152,7.175,10.62,10.653C39.275,18.838,40.43,17.687,41.513,16.605z"/>
	<path fill="#333333" d="M46.085,35.515c1.291,0,2.512,0,3.788,0c0.008,0.163,0.021,0.32,0.021,0.477
		c0.002,2.33,0.007,4.658,0,6.986c-0.014,4.033-2.68,7.145-6.662,7.734c-0.702,0.105-1.43,0.065-2.145,0.065
		c-7.182,0.004-14.363,0.006-21.544,0.002c-4.058-0.002-7.184-2.644-7.796-6.598c-0.08-0.512-0.067-1.041-0.069-1.563
		c-0.006-2.194-0.001-4.389-0.001-6.584c0-0.16,0-0.32,0-0.509c1.277,0,2.51,0,3.81,0c0,0.179,0,0.352,0,0.523
		c0,2.27,0,4.539,0,6.809c0.002,2.502,1.63,4.114,4.125,4.112c7.464-0.004,14.93-0.004,22.394,0.003
		c1.194,0.001,2.232-0.356,3.055-1.241c0.716-0.77,1.026-1.698,1.026-2.739c0-2.3,0-4.6,0-6.897
		C46.085,35.917,46.085,35.741,46.085,35.515z"/>
	<path fill="#333333" d="M43.475,24.603c-0.83,0.828-1.714,1.709-2.625,2.619c-2.656-2.665-5.349-5.366-8.136-8.16
		c0,6.815,0,13.493,0,20.21c-1.288,0-2.53,0-3.817,0c0-6.685,0-13.364,0-20.006c-2.694,2.692-5.386,5.384-8.064,8.061
		c-0.995-1.008-1.878-1.904-2.737-2.773c4.198-4.198,8.449-8.451,12.665-12.669C34.985,16.109,39.242,20.37,43.475,24.603z"/>
</g>
</svg>
